<?xml version="1.0" encoding="utf-8"?>
<!-- Generator: Adobe Illustrator 15.1.0, SVG Export Plug-In . SVG Version: 6.00 Build 0)  -->
<!DOCTYPE svg PUBLIC "-//W3C//DTD SVG 1.1//EN" "http://www.w3.org/Graphics/SVG/1.1/DTD/svg11.dtd">
<svg version="1.1" xmlns="http://www.w3.org/2000/svg" xmlns:xlink="http://www.w3.org/1999/xlink" x="0px" y="0px"
	 width="198.925px" height="90.334px" viewBox="0 0 198.925 90.334" enable-background="new 0 0 198.925 90.334"
	 xml:space="preserve">
<g id="BG">
</g>
<g id="Logo_1_">
	<text id="Text" transform="matrix(1 0 0 1 9.4336 83.8008)" fill="#527679" font-family="'Lato-Bold'" font-size="35.5263">underscore</text>
	<path id="Icon" fill="#527679" d="M125.864,15.822c-0.36-4.757-4.977-9.041-10.054-9.358c-10.813-0.615-21.627-0.615-32.44,0
		c-5.077,0.317-9.694,4.601-10.054,9.358c-0.652,9.404-0.652,18.807,0,28.21c0.359,4.759,4.977,9.042,10.054,9.358
		c10.813,0.615,21.627,0.615,32.44,0c5.077-0.316,9.693-4.6,10.054-9.358C126.516,34.629,126.516,25.226,125.864,15.822z
		 M102.162,42.331h-17.75v-3.367h17.75V42.331z M114.191,41.96c-0.264,0.264-0.569,0.469-0.918,0.616
		c-0.35,0.146-0.718,0.22-1.104,0.22c-0.388,0-0.751-0.074-1.092-0.22c-0.341-0.147-0.643-0.353-0.906-0.616
		c-0.264-0.263-0.468-0.565-0.614-0.904c-0.147-0.342-0.222-0.706-0.222-1.094c0-0.387,0.074-0.755,0.222-1.104
		c0.146-0.348,0.351-0.653,0.614-0.917c0.542-0.543,1.209-0.813,1.998-0.813c0.386,0,0.754,0.07,1.104,0.21
		c0.349,0.14,0.654,0.341,0.918,0.604c0.541,0.542,0.812,1.216,0.812,2.021C115.003,40.752,114.732,41.419,114.191,41.96z"/>
</g>
</svg>
